<svg width="1124" height="612" viewBox="0 0 1124 612" xmlns="http://www.w3.org/2000/svg"><path d="M302.279 498.312 300 493.256l-2.279 5.056C266.868 566.765 220.337 609.5 169 609.5c-45.34 0-86.922-33.307-117.313-88.334C21.345 466.227 2.5 390.159 2.5 306S21.345 145.773 51.687 90.834C82.078 35.807 123.66 2.5 169 2.5c51.337 0 97.868 42.735 128.721 111.188l2.279 5.056 2.279-5.056C333.132 45.235 379.663 2.5 431 2.5s97.868 42.735 128.721 111.188l2.279 5.056 2.279-5.056C595.132 45.235 641.663 2.5 693 2.5s97.868 42.735 128.721 111.188l2.279 5.056 2.279-5.056C857.132 45.235 903.663 2.5 955 2.5c45.34 0 86.92 33.307 117.31 88.334 30.34 54.939 49.19 131.007 49.19 215.166s-18.85 160.227-49.19 215.166C1041.92 576.193 1000.34 609.5 955 609.5c-51.337 0-97.868-42.735-128.721-111.188L824 493.256l-2.279 5.056C790.868 566.765 744.337 609.5 693 609.5s-97.868-42.735-128.721-111.188L562 493.256l-2.279 5.056C528.868 566.765 482.337 609.5 431 609.5s-97.868-42.735-128.721-111.188" fill="#000"/></svg>